<?xml version="1.0" standalone="no"?><!DOCTYPE svg PUBLIC "-//W3C//DTD SVG 1.1//EN" "http://www.w3.org/Graphics/SVG/1.1/DTD/svg11.dtd"><svg t="1775064767329" class="icon" viewBox="0 0 1131 1024" version="1.1" xmlns="http://www.w3.org/2000/svg" p-id="16536" xmlns:xlink="http://www.w3.org/1999/xlink" width="220.8984375" height="200"><path d="M350.181053 458.078316v-161.792h431.454315v162.007579c44.678737 0 53.948632-22.932211 53.948632-67.637895v-67.422316c0-44.705684-22.743579-80.922947-67.422316-80.922947H363.654737c-44.705684 0-67.449263 36.217263-67.449263 80.922947v67.422316c0 44.705684 9.269895 67.422316 53.975579 67.422316z m107.843368 52.924631h55.026526l-55.026526-106.819368h64.727579l44.032 80.384 42.253474-80.384h64.727579l-55.565474 106.819368h55.565474v56.077474h-80.410948v24.899368h80.410948v54.37979h-80.410948v54.406737h-54.918737v-54.406737h-80.410947v-54.37979h80.410947v-24.899368h-80.410947v-56.077474z m-53.921684-160.794947v430.645895h323.584V350.208H404.102737zM80.491789 512c0 268.045474 217.357474 485.429895 485.402948 485.429895 268.045474 0 485.402947-217.384421 485.402947-485.429895S833.940211 26.597053 565.894737 26.597053C297.849263 26.597053 80.491789 243.954526 80.491789 512zM363.654737 188.389053h404.506947a121.424842 121.424842 0 0 1 121.344 121.370947v80.896c0 66.964211-40.906105 121.344-107.870316 121.344v323.610947H350.181053V512c-66.964211 0-107.897263-54.379789-107.897264-121.344v-80.896a121.451789 121.451789 0 0 1 121.370948-121.370947z" fill="#F14B4F" p-id="16537"></path></svg>