<?xml version="1.0" standalone="no"?><!DOCTYPE svg PUBLIC "-//W3C//DTD SVG 1.1//EN" "http://www.w3.org/Graphics/SVG/1.1/DTD/svg11.dtd"><svg t="1775064623141" class="icon" viewBox="0 0 1024 1024" version="1.1" xmlns="http://www.w3.org/2000/svg" p-id="7695" xmlns:xlink="http://www.w3.org/1999/xlink" width="200" height="200"><path d="M512.256 511.5392m-453.2224 0a453.2224 453.2224 0 1 0 906.4448 0 453.2224 453.2224 0 1 0-906.4448 0Z" fill="#F49D22" p-id="7696"></path><path d="M512.256 58.3168A453.2224 453.2224 0 0 0 145.92 778.24 453.2224 453.2224 0 0 0 779.1104 145.2032a451.072 451.072 0 0 0-266.8544-86.8864z" fill="#F6AD2A" p-id="7697"></path><path d="M755.9168 304.9984a451.3792 451.3792 0 0 0-47.5136-202.0864A453.2736 453.2736 0 0 0 106.5472 713.5744a453.2224 453.2224 0 0 0 649.3696-408.576z" fill="#F9BF34" p-id="7698"></path><path d="M59.0336 511.5392a451.1744 451.1744 0 0 0 14.2336 112.64A444.7232 444.7232 0 0 0 615.1168 70.0928 453.4272 453.4272 0 0 0 59.0336 511.5392z" fill="#FAC93A" p-id="7699"></path><path d="M846.592 345.7536v-11.264a89.9072 89.9072 0 0 0-89.9584-89.9584H263.0144A89.9072 89.9072 0 0 0 173.056 334.4896v11.264z" fill="#FDF3E2" p-id="7700"></path><path d="M173.056 407.1936v281.6a89.9584 89.9584 0 0 0 89.9584 90.0096h493.6192a89.9584 89.9584 0 0 0 89.9584-90.0096v-281.6z m228.2496 100.608H289.9968a30.72 30.72 0 1 1 0-61.44h111.3088a30.72 30.72 0 0 1 0 61.44z" fill="#F7E8D2" p-id="7701"></path><path d="M173.056 567.0912l86.4256-86.4768v-3.5328a30.72 30.72 0 0 1 30.72-30.72h3.7888L332.8 407.1936H173.056zM263.0144 244.5312A89.9072 89.9072 0 0 0 173.056 334.4896v11.264H394.24l101.376-101.2224z" fill="#FFFFFF" p-id="7702"></path><path d="M332.8 407.1936l-39.168 39.168h107.52a30.72 30.72 0 0 1 0 61.44H289.9968a30.72 30.72 0 0 1-30.72-27.1872L173.056 567.0912v121.4976a89.9072 89.9072 0 0 0 74.8544 88.6272l370.0224-370.0224zM495.616 244.5312L394.24 345.7536h284.9792L778.24 247.1424a91.648 91.648 0 0 0-21.3504-2.6112z" fill="#FEFAF3" p-id="7703"></path><path d="M846.592 407.1936h-228.6592L247.9104 777.216a91.5456 91.5456 0 0 0 15.104 1.3824h268.544l315.0336-315.0336z" fill="#FDF3E2" p-id="7704"></path></svg>